Coordinates
nRows=11
nColumns=24

# SIMM Motion File Header:
name Coordinates
datacolumns 24
datarows 11
otherdata 1
range 0.10167000000000000000 0.11166999999999999000

Units are S.I. units (second, meters, Newtons, ...)
Angles are in degrees.

endheader
time	pelvis_tx	pelvis_ty	pelvis_tz	pelvis_tilt	pelvis_list	pelvis_rotation	hip_flexion_r	hip_adduction_r	hip_rotation_r	knee_angle_r	ankle_angle_r	subtalar_angle_r	mtp_angle_r	hip_flexion_l	hip_adduction_l	hip_rotation_l	knee_angle_l	ankle_angle_l	subtalar_angle_l	mtp_angle_l	lumbar_extension	lumbar_bending	lumbar_rotation
      0.10167000000000000000	      0.76909003718445801000	      0.65736957158030795000	     -0.31339627441006268000	      7.49131131652771650000	      6.76569053786695740000	     -4.00699612913412830000	    -18.50794494468917900000	     -6.08835689750507750000	    -15.18186232936859300000	    -42.36309358487858400000	    -12.75432760459437500000	      0.00000000000000000000	      0.00000000000000000000	     17.69236115887467900000	     12.79278658804155800000	      2.40877810396458570000	    -23.09436825720343100000	     -2.33469338206976000000	      0.00000000000000000000	      0.00000000000000000000	    -23.59339222231475100000	    -14.18640544419658400000	     11.65512596531561400000
      0.10267000000000000000	      0.77029728272329800000	      0.65755901339228284000	     -0.31318274462097845000	      7.50453703276364780000	      6.79639512337053730000	     -4.04314334340863810000	    -18.29527592996889100000	     -6.22530688913774990000	    -15.30835783550307400000	    -42.77902157586050400000	    -12.90767372360713400000	      0.00000000000000000083	     -0.00000000000000000005	     17.56805168229042700000	     12.82262399198587000000	      2.43666152305425450000	    -23.11181154071922400000	     -2.19094024981576090000	     -0.00000000000000001569	      0.00000000000000000079	    -23.59264213064620500000	    -14.24660348603876300000	     11.63412356706449900000
      0.10367000000000000000	      0.77150194448988474000	      0.65774916169587472000	     -0.31297040279579463000	      7.51751804275877690000	      6.82688752102158510000	     -4.07921200415462340000	    -18.08218475466307900000	     -6.36150549998163580000	    -15.43243323531933900000	    -43.19379106905626700000	    -13.05805009556762500000	      0.00000000000000000729	      0.00000000000000000103	     17.44391056729195100000	     12.85212647943070700000	      2.46215784768442840000	    -23.12876069633052000000	     -2.04785956737335710000	     -0.00000000000000008636	      0.00000000000000000073	    -23.59161694504104600000	    -14.30585199633383000000	     11.61226384437986200000
      0.10467000000000000000	      0.77270403172344193000	      0.65794005423118795000	     -0.31275934029311853000	      7.53025217064579970000	      6.85715113513156990000	     -4.11520372087921340000	    -17.86866481675731300000	     -6.49689329923369390000	    -15.55390997271968500000	    -43.60729985444793000000	    -13.20525019389532100000	      0.00000000000000001546	      0.00000000000000000756	     17.31993539584828700000	     12.88127211727127300000	      2.48509994701027190000	    -23.14521669263142900000	     -1.90512059398381100000	     -0.00000000000000012569	     -0.00000000000000004824	    -23.59031155794742700000	    -14.36408543897973900000	     11.58949150040139700000
      0.10567000000000000000	      0.77390354383846183000	      0.65813171667160086000	     -0.31254968042223008000	      7.54272028341600450000	      6.88716777478100720000	     -4.15111162328484080000	    -17.65468548047644900000	     -6.63140569079330080000	    -15.67258385467087000000	    -44.01944380309339500000	    -13.34903455049330000000	      0.00000000000000002437	      0.00000000000000001269	     17.19613779484528500000	     12.91003334139857700000	      2.50529346909403560000	    -23.16114092749450700000	     -1.76274796732279280000	     -0.00000000000000016626	     -0.00000000000000005274	    -23.58870503248163100000	    -14.42122275243347800000	     11.56573376725958000000
      0.10667000000000000000	      0.77510048193283265000	      0.65832417393141895000	     -0.31234154647303503000	      7.55490337312559120000	      6.91691943938302420000	     -4.18692857578876510000	    -17.44021679089234700000	     -6.76497881893095340000	    -15.78825343876735100000	    -44.43011893089683200000	    -13.48916915509392700000	      0.00000000000000003570	      0.00000000000000001721	     17.07252927970268200000	     12.93838301531653200000	      2.52254808117024920000	    -23.17649494753436200000	     -1.62076911618666730000	     -0.00000000000000019165	     -0.00000000000000005867	    -23.58677663500938200000	    -14.47718360224243000000	     11.54091849623393400000
      0.10767000000000000000	      0.77629484893948730000	      0.65851745018622676000	     -0.31213506133030061000	      7.56678277735526360000	      6.94638833978494570000	     -4.22264724313885950000	    -17.22522985292086500000	     -6.89754972027526670000	    -15.90072040595540600000	    -44.83922144701936200000	    -13.62542623025034900000	      0.00000000000000004672	      0.00000000000000002166	     16.94912103774758100000	     12.96629455148215200000	      2.53667807224482680000	    -23.19124083293499800000	     -1.47921116698474560000	     -0.00000000000000021174	     -0.00000000000000008196	    -23.58450604236070400000	    -14.53188860169403500000	     11.51497438702875800000
      0.10867000000000000000	      0.77748664960254144000	      0.65871156875408876000	     -0.31193034732646696000	      7.57834020443725280000	      6.97555691116503060000	     -4.25826007792842280000	    -17.00969691066188700000	     -7.02905638963125680000	    -16.00978977428025700000	    -45.24664777295499400000	    -13.75758464191552300000	      0.00000000000000005769	      0.00000000000000002669	     16.82592389798405100000	     12.99374195160799600000	      2.54750266612918350000	    -23.20534123720026500000	     -1.33810090359615290000	     -0.00000000000000022796	     -0.00000000000000011470	    -23.58187337459864700000	    -14.58525938150404100000	     11.48783104834438400000
      0.10966999999999999000	      0.77867589045356678000	      0.65890655198122638000	     -0.31172752609492738000	      7.58955775677412440000	      7.00440782139751230000	     -4.29375931085083450000	    -16.79359142187367500000	     -7.15943783973673930000	    -16.11527010409023600000	    -45.65229456175772800000	    -13.88543029364154600000	      0.00000000000000006870	      0.00000000000000002702	     16.70294829810600800000	     13.02069984060628900000	      2.55484631495620330000	    -23.21875942186478200000	     -1.19746488110617610000	     -0.00000000000000020162	     -0.00000000000000018800	    -23.57885922432004100000	    -14.63721865348797400000	     11.45941906112763500000
      0.11066999999999999000	      0.77986257979575802000	      0.65910242117136320000	     -0.31152671843961705000	      7.60041795135729450000	      7.03292398068033360000	     -4.32913694009624630000	    -16.57688812200679300000	     -7.28863415797549940000	    -16.21697369421232100000	    -46.05605872193047600000	    -14.00875646977399000000	      0.00000000000000008202	      0.00000000000000002176	     16.58020425862153100000	     13.04714349836377700000	      2.55853897508287930000	    -23.23145928720188600000	     -1.05732943151090560000	     -0.00000000000000019733	     -0.00000000000000029182	    -23.57544468284579200000	    -14.68769027208351100000	     11.42967003607867900000
      0.11166999999999999000	      0.78104672769938033000	      0.65929919657362490000	     -0.31132804422731425000	      7.61090373708414520000	      7.06108855624184620000	     -4.36438471737535940000	    -16.35956307747858700000	     -7.41658656380353070000	    -16.31471677361608400000	    -46.45783744611279100000	    -14.12736413117341500000	      0.00000000000000009501	      0.00000000000000001359	     16.45770136919066900000	     13.07304889280390400000	      2.55841637234671460000	    -23.24340540129426100000	     -0.91772050895543644000	     -0.00000000000000018121	     -0.00000000000000041251	    -23.57161136402660200000	    -14.73659929717597100000	     11.39851666166494400000
